<mxfile host="app.diagrams.net" modified="2023-09-23T02:38:40.365Z" agent="Mozilla/5.0 (Macintosh; Intel Mac OS X 10_15_7) AppleWebKit/537.36 (KHTML, like Gecko) Chrome/116.0.0.0 Safari/537.36 Edg/116.0.1938.76" version="21.8.1" etag="MWNo8eemGAQgGXYVG2Qm" type="github">
  <diagram name="Page-1" id="OdwgXuBPd_TRFy0CQGEd">
    <mxGraphModel>
      <root>
        <mxCell id="0" />
        <mxCell id="1" parent="0" />
      </root>
    </mxGraphModel>
  </diagram>
</mxfile>
